<svg xmlns="http://www.w3.org/2000/svg" xmlns:xlink="http://www.w3.org/1999/xlink" width="500" zoomAndPan="magnify" viewBox="0 0 375 374.999991" height="500" preserveAspectRatio="xMidYMid meet" version="1.0"><defs><clipPath id="id1"><path d="M 17.085938 17.085938 L 356.835938 17.085938 L 356.835938 356.835938 L 17.085938 356.835938 Z M 17.085938 17.085938 " clip-rule="nonzero"/></clipPath></defs><g clip-path="url(#id1)"><path fill="#0177b5" d="M 331.671875 17.09375 L 42.160156 17.09375 C 28.339844 17.09375 17.085938 28.0625 17.085938 41.566406 L 17.085938 332.308594 C 17.085938 345.84375 28.339844 356.835938 42.160156 356.835938 L 331.691406 356.835938 C 345.546875 356.835938 356.835938 345.84375 356.835938 332.308594 L 356.835938 41.566406 C 356.835938 28.0625 345.546875 17.09375 331.671875 17.09375 Z M 331.671875 17.09375 " fill-opacity="1" fill-rule="nonzero"/></g><path fill="#ffffff" d="M 67.460938 144.457031 L 117.949219 144.457031 L 117.949219 306.582031 L 67.460938 306.582031 Z M 92.667969 63.769531 C 108.773438 63.769531 121.867188 76.859375 121.867188 92.964844 C 121.867188 109.070312 108.773438 122.195312 92.679688 122.195312 C 91.722656 122.191406 90.765625 122.144531 89.816406 122.046875 C 88.863281 121.953125 87.917969 121.808594 86.980469 121.621094 C 86.042969 121.433594 85.113281 121.199219 84.199219 120.921875 C 83.285156 120.644531 82.386719 120.320312 81.5 119.953125 C 80.617188 119.585938 79.753906 119.175781 78.910156 118.726562 C 78.066406 118.273438 77.246094 117.78125 76.453125 117.25 C 75.65625 116.71875 74.890625 116.148438 74.148438 115.539062 C 73.410156 114.933594 72.703125 114.292969 72.023438 113.617188 C 71.347656 112.9375 70.707031 112.230469 70.097656 111.492188 C 69.492188 110.753906 68.921875 109.984375 68.390625 109.191406 C 67.859375 108.394531 67.367188 107.574219 66.914062 106.730469 C 66.460938 105.890625 66.050781 105.023438 65.683594 104.140625 C 65.316406 103.257812 64.992188 102.359375 64.714844 101.445312 C 64.433594 100.527344 64.203125 99.601562 64.011719 98.664062 C 63.824219 97.726562 63.683594 96.78125 63.585938 95.828125 C 63.492188 94.875 63.441406 93.921875 63.4375 92.964844 C 63.4375 92.007812 63.484375 91.054688 63.578125 90.101562 C 63.671875 89.148438 63.8125 88.203125 64 87.265625 C 64.1875 86.328125 64.417969 85.398438 64.699219 84.484375 C 64.976562 83.570312 65.296875 82.667969 65.664062 81.785156 C 66.03125 80.902344 66.441406 80.035156 66.890625 79.191406 C 67.34375 78.347656 67.835938 77.53125 68.367188 76.734375 C 68.898438 75.9375 69.46875 75.171875 70.074219 74.433594 C 70.683594 73.691406 71.324219 72.984375 72 72.308594 C 72.679688 71.632812 73.386719 70.992188 74.128906 70.382812 C 74.867188 69.777344 75.636719 69.207031 76.429688 68.675781 C 77.226562 68.148438 78.046875 67.65625 78.890625 67.207031 C 79.734375 66.753906 80.601562 66.347656 81.484375 65.980469 C 82.371094 65.617188 83.269531 65.292969 84.183594 65.019531 C 85.101562 64.742188 86.027344 64.507812 86.96875 64.324219 C 87.90625 64.136719 88.851562 64 89.804688 63.90625 C 90.757812 63.8125 91.710938 63.765625 92.667969 63.769531 M 149.46875 144.457031 L 197.800781 144.457031 L 197.800781 166.617188 L 198.46875 166.617188 C 205.199219 153.875 221.636719 140.433594 246.246094 140.433594 C 297.273438 140.433594 306.6875 174.015625 306.6875 217.664062 L 306.6875 306.59375 L 256.332031 306.59375 L 256.332031 227.730469 C 256.332031 208.9375 255.992188 184.730469 230.148438 184.730469 C 203.925781 184.730469 199.890625 205.222656 199.890625 226.347656 L 199.890625 306.550781 L 149.542969 306.550781 L 149.542969 144.425781 Z M 149.46875 144.457031 " fill-opacity="1" fill-rule="nonzero"/></svg>